<?xml version="1.0" encoding="utf-8"?>
<svg width="106" height="16" viewBox="0 0 106 16" fill="none" xmlns="http://www.w3.org/2000/svg">
  <path d="M 14.042 3.668 Q 13.746 3.333 13.352 3.067 Q 12.958 2.801 12.466 2.604 Q 11.973 2.407 11.412 2.289 Q 10.85 2.171 10.22 2.171 Q 8.388 2.171 7.531 2.87 Q 6.674 3.57 6.674 4.771 Q 6.674 5.599 7.078 6.071 Q 7.482 6.544 8.348 6.84 Q 9.215 7.135 10.555 7.45 Q 12.052 7.766 13.136 8.199 Q 14.219 8.632 14.81 9.371 Q 15.401 10.11 15.401 11.371 Q 15.401 12.336 15.027 13.045 Q 14.652 13.754 13.983 14.227 Q 13.313 14.7 12.387 14.927 Q 11.461 15.153 10.358 15.153 Q 9.274 15.153 8.28 14.927 Q 7.285 14.7 6.398 14.257 Q 5.512 13.814 4.743 13.124 L 5.433 12.001 Q 5.807 12.395 6.329 12.74 Q 6.851 13.085 7.492 13.36 Q 8.132 13.636 8.871 13.784 Q 9.609 13.932 10.397 13.932 Q 12.072 13.932 13.008 13.321 Q 13.943 12.71 13.943 11.509 Q 13.943 10.642 13.47 10.12 Q 12.998 9.598 12.052 9.263 Q 11.106 8.928 9.727 8.613 Q 8.27 8.278 7.265 7.864 Q 6.26 7.45 5.758 6.771 Q 5.256 6.091 5.256 4.968 Q 5.256 3.668 5.896 2.772 Q 6.536 1.875 7.659 1.412 Q 8.782 0.949 10.24 0.949 Q 11.166 0.949 11.963 1.137 Q 12.761 1.324 13.441 1.678 Q 14.121 2.033 14.712 2.565 Z M 18.907 0.654 L 20.246 0.654 L 20.246 12.71 Q 20.246 13.479 20.522 13.715 Q 20.798 13.951 21.192 13.951 Q 21.547 13.951 21.901 13.873 Q 22.256 13.794 22.512 13.715 L 22.748 14.799 Q 22.374 14.956 21.832 15.055 Q 21.291 15.153 20.897 15.153 Q 19.99 15.153 19.449 14.621 Q 18.907 14.089 18.907 13.163 Z M 25.506 15.035 L 25.506 4.771 L 26.846 4.771 L 26.846 15.035 Z M 25.506 2.624 L 25.506 0.654 L 26.846 0.654 L 26.846 2.624 Z M 46.368 15.035 L 45.028 15.035 L 45.028 9.302 Q 45.028 7.51 44.457 6.662 Q 43.886 5.815 42.763 5.815 Q 41.601 5.815 40.685 6.643 Q 39.768 7.47 39.394 8.77 L 39.394 15.035 L 38.055 15.035 L 38.055 9.302 Q 38.055 7.49 37.503 6.653 Q 36.951 5.815 35.809 5.815 Q 34.666 5.815 33.74 6.623 Q 32.814 7.431 32.44 8.751 L 32.44 15.035 L 31.1 15.035 L 31.1 4.771 L 32.322 4.771 L 32.322 7.096 Q 32.972 5.894 33.987 5.244 Q 35.001 4.594 36.242 4.594 Q 37.523 4.594 38.311 5.323 Q 39.099 6.052 39.276 7.234 Q 39.985 5.934 40.98 5.264 Q 41.975 4.594 43.236 4.594 Q 44.102 4.594 44.703 4.909 Q 45.304 5.224 45.669 5.806 Q 46.033 6.387 46.201 7.204 Q 46.368 8.022 46.368 9.026 Z" transform="matrix(1.041426, 0, 0, 1, -0.170385, 0)" style="fill: rgb(51, 51, 51); white-space: pre;"/>
  <path d="M 65.944 14.972 L 65.944 3.412 L 60.649 12.392 L 59.742 12.392 L 54.426 3.412 L 54.426 14.972 L 52.984 14.972 L 52.984 0.773 L 54.467 0.773 L 60.175 10.492 L 65.923 0.773 L 67.387 0.773 L 67.387 14.972 L 65.944 14.972 Z M 76.861 15.172 C 76.092 15.172 75.381 15.028 74.729 14.742 C 74.076 14.455 73.513 14.061 73.039 13.561 C 72.565 13.061 72.198 12.488 71.937 11.842 C 71.675 11.195 71.545 10.512 71.545 9.792 C 71.545 9.045 71.675 8.349 71.937 7.702 C 72.198 7.056 72.569 6.483 73.049 5.983 C 73.53 5.483 74.097 5.089 74.749 4.803 C 75.402 4.516 76.113 4.372 76.882 4.372 C 77.651 4.372 78.358 4.516 79.004 4.803 C 79.65 5.089 80.213 5.483 80.693 5.983 C 81.174 6.483 81.545 7.056 81.806 7.702 C 82.067 8.349 82.198 9.045 82.198 9.792 C 82.198 10.512 82.067 11.195 81.806 11.842 C 81.545 12.488 81.178 13.061 80.704 13.561 C 80.23 14.061 79.666 14.455 79.014 14.742 C 78.362 15.028 77.644 15.172 76.861 15.172 Z M 72.967 9.812 C 72.967 10.585 73.142 11.289 73.493 11.922 C 73.842 12.555 74.313 13.055 74.904 13.422 C 75.495 13.788 76.147 13.972 76.861 13.972 C 77.575 13.972 78.228 13.785 78.819 13.411 C 79.41 13.038 79.883 12.529 80.24 11.882 C 80.598 11.235 80.776 10.532 80.776 9.772 C 80.776 8.999 80.598 8.292 80.24 7.652 C 79.883 7.012 79.41 6.506 78.819 6.133 C 78.228 5.759 77.575 5.572 76.861 5.572 C 76.147 5.572 75.498 5.766 74.914 6.152 C 74.331 6.539 73.86 7.049 73.502 7.683 C 73.145 8.316 72.967 9.026 72.967 9.812 Z M 102.203 14.972 L 100.802 14.972 L 100.802 9.152 C 100.802 7.939 100.603 7.046 100.205 6.472 C 99.806 5.899 99.216 5.612 98.433 5.612 C 97.622 5.612 96.898 5.892 96.259 6.452 C 95.62 7.012 95.17 7.732 94.909 8.612 L 94.909 14.972 L 93.508 14.972 L 93.508 9.152 C 93.508 7.925 93.316 7.029 92.931 6.462 C 92.547 5.895 91.956 5.612 91.159 5.612 C 90.362 5.612 89.641 5.886 88.996 6.433 C 88.35 6.979 87.897 7.699 87.636 8.592 L 87.636 14.972 L 86.234 14.972 L 86.234 4.553 L 87.512 4.553 L 87.512 6.912 C 87.965 6.099 88.546 5.472 89.253 5.033 C 89.961 4.593 90.747 4.372 91.612 4.372 C 92.505 4.372 93.226 4.619 93.775 5.112 C 94.325 5.606 94.662 6.252 94.785 7.052 C 95.28 6.173 95.874 5.506 96.568 5.053 C 97.262 4.599 98.048 4.372 98.927 4.372 C 99.531 4.372 100.043 4.479 100.462 4.692 C 100.881 4.905 101.217 5.209 101.472 5.603 C 101.726 5.996 101.911 6.469 102.028 7.022 C 102.145 7.576 102.203 8.192 102.203 8.872 L 102.203 14.972 Z" style="fill: rgb(252, 132, 45); white-space: pre;"/>
  <path d="M 25.207 28.367 L 20.034 37.404 L 18.434 37.404 L 13.238 28.361 L 13.238 40.397 L 10.614 40.397 L 10.614 22.925 L 13.075 22.925 L 19.213 33.693 L 25.393 22.925 L 27.831 22.925 L 27.831 40.397 L 25.207 40.397 Z M 26.831 39.397 L 26.831 23.925 L 25.973 23.925 L 19.209 35.707 L 12.493 23.925 L 11.614 23.925 L 11.614 39.397 L 12.238 39.397 L 12.238 24.613 L 19.012 36.404 L 19.454 36.404 L 26.207 24.607 L 26.207 39.397 Z M 37.999 40.629 C 37.082 40.629 36.176 40.441 35.392 40.085 C 34.612 39.732 33.899 39.213 33.327 38.599 C 32.765 37.982 32.299 37.241 31.988 36.448 C 31.677 35.654 31.513 34.769 31.513 33.888 C 31.513 32.977 31.677 32.076 31.988 31.282 C 32.299 30.488 32.768 29.742 33.341 29.128 C 33.917 28.512 34.636 27.997 35.415 27.645 C 36.199 27.289 37.105 27.101 38.022 27.101 C 38.939 27.101 39.84 27.295 40.62 27.645 C 41.389 28.002 42.105 28.512 42.68 29.128 C 43.253 29.742 43.722 30.488 44.033 31.282 C 44.344 32.076 44.508 32.977 44.508 33.888 C 44.508 34.769 44.344 35.654 44.033 36.448 C 43.722 37.241 43.255 37.983 42.694 38.6 C 42.122 39.213 41.409 39.732 40.629 40.085 C 39.844 40.441 38.931 40.629 37.999 40.629 Z M 40.217 39.175 C 40.907 38.862 41.462 38.469 41.958 37.922 C 42.463 37.38 42.824 36.791 43.101 36.084 C 43.378 35.378 43.508 34.678 43.508 33.888 C 43.508 33.067 43.378 32.352 43.101 31.646 C 42.824 30.94 42.458 30.356 41.948 29.81 C 41.44 29.266 40.889 28.863 40.204 28.555 C 39.53 28.239 38.837 28.101 38.022 28.101 C 37.207 28.101 36.512 28.245 35.827 28.555 C 35.137 28.868 34.58 29.266 34.073 29.81 C 33.563 30.356 33.197 30.94 32.92 31.646 C 32.643 32.352 32.513 33.067 32.513 33.888 C 32.513 34.678 32.643 35.378 32.92 36.084 C 33.197 36.791 33.558 37.38 34.063 37.922 C 34.559 38.469 35.114 38.862 35.804 39.175 C 36.489 39.485 37.184 39.629 37.999 39.629 C 38.83 39.629 39.532 39.484 40.217 39.175 Z M 33.779 31.201 C 34.214 30.419 34.818 29.735 35.525 29.253 C 36.244 28.763 37.122 28.493 37.999 28.493 C 38.874 28.493 39.745 28.76 40.476 29.224 C 41.19 29.698 41.807 30.376 42.244 31.168 C 42.669 31.969 42.907 32.908 42.907 33.865 C 42.907 34.806 42.669 35.74 42.245 36.549 C 41.808 37.349 41.19 38.031 40.476 38.506 C 39.745 38.97 38.874 39.237 37.999 39.237 C 37.125 39.237 36.251 38.984 35.526 38.52 C 34.806 38.06 34.195 37.38 33.765 36.595 C 33.348 35.801 33.114 34.867 33.114 33.911 C 33.114 32.94 33.353 31.996 33.779 31.201 Z M 34.114 33.911 C 34.114 34.75 34.275 35.447 34.646 36.122 C 35.005 36.807 35.454 37.287 36.064 37.678 C 36.67 38.065 37.265 38.237 37.999 38.237 C 38.732 38.237 39.331 38.071 39.93 37.668 C 40.546 37.277 40.996 36.777 41.363 36.077 C 41.743 35.384 41.907 34.687 41.907 33.865 C 41.907 33.027 41.743 32.327 41.364 31.644 C 40.997 30.951 40.547 30.453 39.93 30.062 C 39.331 29.659 38.732 29.493 37.999 29.493 C 37.268 29.493 36.685 29.672 36.089 30.079 C 35.481 30.494 35.025 30.993 34.656 31.681 C 34.277 32.355 34.114 33.058 34.114 33.911 Z M 64.456 40.397 L 64.456 33.146 C 64.462 31.792 64.265 30.905 63.868 30.317 C 63.488 29.753 63.057 29.539 62.288 29.539 C 61.468 29.539 60.819 29.782 60.175 30.385 C 59.502 30.979 59.089 31.663 58.82 32.589 L 58.82 40.397 L 56.243 40.397 L 56.243 33.146 C 56.248 31.774 56.073 30.871 55.675 30.3 C 55.341 29.729 54.885 29.539 54.098 29.539 C 53.292 29.539 52.644 29.778 51.991 30.368 C 51.313 30.944 50.899 31.625 50.631 32.565 L 50.631 40.397 L 48.053 40.397 L 48.053 27.31 L 50.492 27.31 L 50.492 28.976 C 50.854 28.573 50.835 28.499 51.682 27.946 C 52.545 27.406 53.565 27.101 54.608 27.101 C 55.696 27.101 56.678 27.468 57.384 28.092 C 58.056 28.735 58.121 28.968 58.353 29.514 C 58.817 28.885 59.073 28.538 59.909 27.975 C 60.752 27.407 61.783 27.101 62.844 27.101 C 63.577 27.101 64.27 27.259 64.805 27.529 C 65.331 27.815 65.805 28.255 66.134 28.762 C 66.441 29.262 66.686 29.893 66.826 30.575 C 66.963 31.244 67.032 32.01 67.033 32.821 L 67.033 40.397 Z M 66.033 32.821 C 66.034 32.055 65.972 31.39 65.846 30.775 C 65.723 30.173 65.551 29.706 65.286 29.294 C 65.041 28.887 64.758 28.624 64.341 28.415 C 63.932 28.191 63.472 28.101 62.844 28.101 C 61.926 28.101 61.187 28.321 60.467 28.805 C 60.133 29.03 59.827 29.295 59.543 29.61 C 60.33 28.934 61.299 28.539 62.288 28.539 C 63.281 28.539 64.18 28.99 64.698 29.757 C 65.198 30.5 65.45 31.686 65.456 33.146 L 65.456 39.397 L 66.033 39.397 Z M 57.883 32.239 L 57.687 30.784 C 57.571 29.932 57.27 29.328 56.704 28.826 C 56.172 28.306 55.53 28.101 54.608 28.101 C 53.703 28.101 52.953 28.307 52.222 28.788 C 51.668 29.134 51.212 29.574 50.82 30.143 C 50.98 29.954 51.151 29.777 51.333 29.614 C 52.133 28.935 53.11 28.539 54.098 28.539 C 55.106 28.539 55.98 29.006 56.511 29.75 C 56.98 30.494 57.238 31.672 57.243 33.146 L 57.243 39.397 L 57.82 39.397 L 57.82 32.446 L 57.84 32.381 C 57.854 32.333 57.868 32.286 57.883 32.239 Z M 49.73 32.104 L 49.492 32.552 L 49.492 28.31 L 49.053 28.31 L 49.053 39.397 L 49.631 39.397 L 49.631 32.424 L 49.65 32.359 C 49.675 32.273 49.702 32.188 49.73 32.104 Z" style="" transform="matrix(0.888122, 0, 0, 0.862006, 41.113434, -19.419773)"/>
</svg>